<svg width="301" height="211" viewBox="0 0 301 211" fill="none" xmlns="http://www.w3.org/2000/svg">
<path d="M46.5815 38.6068C48.5077 44.0725 45.6264 50.0598 40.1768 51.978C34.7031 53.9042 28.7318 51.031 26.7976 45.5653C24.8794 40.0996 27.7526 34.1203 33.2183 32.1941C38.684 30.2679 44.6633 33.1331 46.5815 38.6068Z" fill="#ED1C24"/>
<path d="M99.1432 19.1999C94.6487 16.5915 72.9546 4.01487 66.8709 0.523588C65.8115 -0.182694 65.4663 1.17369 66.1485 1.7034C79.3271 11.3987 88.8138 27.9884 86.2535 48.8157C83.8056 68.72 69.0941 83.9853 53.8528 89.146C40.3131 93.7288 34.8795 95.2216 32.5038 95.944C34.3498 101.233 38.3949 115.102 30.0318 130.72C25.0798 139.974 14.6862 148.979 1.81264 151.636C1.28293 151.748 0.664935 151.909 1.16254 152.174C1.75646 152.511 22.9048 164.71 22.9048 164.71C31.5166 169.686 46.4529 167.728 55.2654 162.736C60.0328 160.031 63.5321 156.757 67.4648 152.262C74.648 144.059 77.0558 131.675 75.9964 121.001C79.7445 119.54 97.7788 113.746 106.005 107.517C113.486 101.851 123.59 91.2247 126.006 71.2883C128.871 47.6439 116.102 29.0397 99.1432 19.1999Z" fill="#ED1C24"/>
<path d="M126.536 200.787C126.536 203.428 128.189 205.057 130.637 205.057H138.141C138.96 205.057 139.072 205.41 139.072 205.875V208.685C139.072 209.262 138.96 209.551 138.021 209.551C136.384 209.551 131.632 209.551 120.621 209.551C110.316 209.551 100.957 209.551 99.6731 209.551C98.8625 209.551 98.6538 209.254 98.6538 208.797V205.875C98.6538 205.273 98.8625 205.057 99.4404 205.057H104.481C108.614 205.065 109.954 203.66 109.954 200.787C109.954 199.607 109.954 135.295 109.954 133.963C109.954 131.603 108.494 130.608 105.331 130.608H99.3762C98.7903 130.608 98.6538 130.375 98.6538 129.677V126.828C98.6538 126.242 98.7501 126.082 99.336 126.082C100.62 126.082 105.339 126.082 116.471 126.082C118.574 126.082 127.347 126.082 131.215 126.082C144.45 126.082 150.935 127.293 157.612 131.86C163.11 135.608 166.505 142.166 166.505 148.843C166.505 163.603 153.03 172.897 135.926 172.897C131.584 172.897 130.284 172.6 126.536 172.126C126.536 172.126 126.536 199.142 126.536 200.787ZM126.536 167.616C128.141 168.081 130.533 169.157 133.928 169.157C139.458 169.157 143.679 166.372 147.042 161.026C149.306 157.415 150.357 153.298 150.357 149.196C150.357 133.851 139.763 129.749 132.852 129.749C130.862 129.749 128.888 129.749 126.536 130.576V167.616Z" fill="#231F20"/>
<path d="M168.303 178.258C168.303 174.421 168.696 171.829 164.843 171.323C164.017 171.219 163.792 170.962 163.792 170.497V169.445C163.792 169.092 164.033 168.884 164.603 168.627C169.779 166.347 175.349 162.96 179.972 159.252C180.791 158.602 181.248 158.434 181.939 158.554C182.404 158.642 182.637 159.036 182.637 159.67C182.637 161.7 182.637 199.486 182.637 200.779C182.637 203.612 184.098 205.04 186.008 205.064H189.924C190.855 205.04 191.096 205.361 191.096 206.068V208.451C191.096 209.27 190.863 209.567 190.045 209.567C189.114 209.567 182.019 209.567 177.091 209.567C170.301 209.567 161.657 209.567 160.373 209.567C159.787 209.567 159.442 209.39 159.442 208.684V205.947C159.442 205.241 159.787 205.016 160.614 205.056H165.076C166.986 205.04 168.303 203.644 168.303 200.763C168.303 197.231 168.303 178.258 168.303 178.258Z" fill="#231F20"/>
<path d="M204.219 181.107C204.203 187.392 206.378 194.743 209.444 198.556C213.689 203.845 217.951 204.856 221.9 204.856C226.258 204.856 229.22 201.389 231.956 198.098C232.165 197.849 232.542 197.753 232.895 198.098L235.391 200.61C235.857 201.076 235.977 201.421 235.391 202.119C232.021 205.956 224.885 210.121 216.667 210.097C210.495 210.081 201.337 208.829 195.984 202.087C191.674 196.389 190.559 192.705 190.254 187.48C189.138 168.362 203.978 159.357 218.288 159.357C230.383 159.357 234.107 166.059 234.107 168.498C233.995 171.179 232.245 172.576 229.805 172.576C227.125 172.576 225.15 171.059 223.401 167.921C220.84 163.153 218.401 162.744 215.607 162.744C208.986 162.736 204.259 168.025 204.219 181.107Z" fill="#231F20"/>
<path d="M243.297 202.288C237.944 195.883 236.82 191.958 236.644 183.7C236.507 177.239 240.32 169.927 247.19 164.566C253.241 159.911 262.118 159.429 265.954 159.349C272.913 159.205 281.549 161.749 285.819 165.946C291.421 171.452 293.893 177.151 293.893 184.711C293.893 197.4 280.979 209.792 264.437 210.089C258.851 210.185 248.185 208.107 243.297 202.288ZM279.173 183.355C279.173 170.545 270.955 162.752 265.015 162.752C261.877 162.752 258.691 163.306 256.05 166.444C252.583 170.569 251.195 177.648 251.508 184.286C251.813 190.803 253.049 196.244 255.922 200.161C258.675 203.917 261.436 206.269 266.396 206.164C275.232 205.972 279.173 195.707 279.173 183.355Z" fill="#231F20"/>
<path d="M296.02 209.559C294.631 209.559 293.451 209.07 292.496 208.123C291.541 207.16 291.06 205.98 291.06 204.591C291.06 203.179 291.525 201.999 292.48 201.06C293.427 200.105 294.599 199.647 296.028 199.647C297.416 199.647 298.596 200.121 299.543 201.092C300.498 202.055 300.98 203.211 300.98 204.591C300.98 205.964 300.498 207.128 299.543 208.099C298.604 209.07 297.424 209.559 296.02 209.559ZM291.886 204.599C291.886 205.755 292.279 206.726 293.074 207.529C293.869 208.34 294.856 208.749 296.036 208.749C297.175 208.749 298.146 208.348 298.949 207.561C299.76 206.766 300.169 205.779 300.169 204.607C300.169 203.564 299.776 202.601 299.021 201.758C298.251 200.9 297.248 200.482 296.02 200.482C294.872 200.482 293.893 200.875 293.098 201.686C292.288 202.473 291.886 203.46 291.886 204.599Z" fill="#231F20"/>
<path d="M293.876 201.942H296.276C296.67 201.942 296.999 201.999 297.255 202.127C297.753 202.344 297.994 202.769 297.994 203.387C297.994 203.7 297.922 203.957 297.793 204.174C297.665 204.366 297.472 204.527 297.239 204.655C297.456 204.735 297.601 204.84 297.713 204.992C297.809 205.113 297.881 205.345 297.897 205.666L297.914 206.373C297.914 206.589 297.938 206.742 297.97 206.838C298.01 206.999 298.09 207.111 298.202 207.151V207.28H297.312C297.296 207.231 297.271 207.167 297.255 207.087C297.239 207.015 297.231 206.87 297.223 206.67L297.175 205.771C297.159 205.418 297.031 205.201 296.798 205.081C296.67 205.016 296.453 204.992 296.172 204.992H294.591V207.28H293.876V201.942ZM296.196 204.374C296.525 204.374 296.782 204.31 296.966 204.174C297.167 204.037 297.255 203.796 297.255 203.459C297.255 203.066 297.119 202.817 296.854 202.673C296.71 202.617 296.517 202.576 296.292 202.576H294.591V204.374H296.196Z" fill="#231F20"/>
</svg>
